<svg
  role="img"
  width="546"
  height="263"
  aria-labelledby="loading-aria"
  viewBox="0 0 546 263"
  preserveAspectRatio="none"
  xmlns="http://www.w3.org/2000/svg"
>
  <title id="loading-aria">Loading...</title>
  <rect
    x="0"
    y="0"
    width="100%"
    height="100%"
    clip-path="url(#clip-path)"
    style='fill: url("#fill");'
  ></rect>
  <defs>
    <clipPath id="clip-path">
        <rect x="2" y="237" rx="0" ry="0" width="542" height="7" /> 
        <rect x="274" y="-140" rx="0" ry="0" width="526" height="7" /> 
        <rect x="269" y="-140" rx="0" ry="0" width="526" height="7" /> 
        <rect x="21" y="1" rx="0" ry="0" width="8" height="260" /> 
        <rect x="49" y="148" rx="0" ry="0" width="27" height="89" /> 
        <rect x="88" y="124" rx="0" ry="0" width="27" height="114" /> 
        <rect x="130" y="116" rx="0" ry="0" width="27" height="125" /> 
        <rect x="170" y="149" rx="0" ry="0" width="27" height="89" /> 
        <rect x="209" y="106" rx="0" ry="0" width="27" height="132" /> 
        <rect x="251" y="142" rx="0" ry="0" width="27" height="96" /> 
        <rect x="291" y="130" rx="0" ry="0" width="27" height="107" /> 
        <rect x="330" y="77" rx="0" ry="0" width="27" height="161" /> 
        <rect x="372" y="136" rx="0" ry="0" width="27" height="106" /> 
        <rect x="412" y="112" rx="0" ry="0" width="27" height="125" /> 
        <rect x="451" y="125" rx="0" ry="0" width="27" height="114" /> 
        <rect x="493" y="133" rx="0" ry="0" width="27" height="106" />
    </clipPath>
    <linearGradient id="fill">
      <stop
        offset="0.599964"
        stop-color="#e3e3e3"
        stop-opacity="1"
      >
        <animate
          attributeName="offset"
          values="-2; -2; 1"
          keyTimes="0; 0.25; 1"
          dur="2s"
          repeatCount="indefinite"
        ></animate>
      </stop>
      <stop
        offset="1.59996"
        stop-color="#bababa"
        stop-opacity="1"
      >
        <animate
          attributeName="offset"
          values="-1; -1; 2"
          keyTimes="0; 0.25; 1"
          dur="2s"
          repeatCount="indefinite"
        ></animate>
      </stop>
      <stop
        offset="2.59996"
        stop-color="#e3e3e3"
        stop-opacity="1"
      >
        <animate
          attributeName="offset"
          values="0; 0; 3"
          keyTimes="0; 0.25; 1"
          dur="2s"
          repeatCount="indefinite"
        ></animate>
      </stop>
    </linearGradient>
  </defs>
</svg>