<svg
  role="img"
  width="533"
  height="271"
  aria-labelledby="loading-aria"
  viewBox="0 0 533 271"
  preserveAspectRatio="none"
  xmlns="http://www.w3.org/2000/svg"
>
  <title id="loading-aria">Loading...</title>
  <rect
    x="0"
    y="0"
    width="100%"
    height="100%"
    clip-path="url(#clip-path)"
    style='fill: url("#fill");'
  ></rect>
  <defs>
    <clipPath id="clip-path">
        <rect x="2" y="6" rx="0" ry="0" width="166" height="78" /> 
        <rect x="184" y="6" rx="0" ry="0" width="166" height="78" /> 
        <rect x="365" y="7" rx="0" ry="0" width="166" height="78" /> 
        <rect x="2" y="98" rx="0" ry="0" width="166" height="78" /> 
        <rect x="184" y="98" rx="0" ry="0" width="166" height="78" /> 
        <rect x="365" y="99" rx="0" ry="0" width="166" height="78" /> 
        <rect x="3" y="191" rx="0" ry="0" width="166" height="78" /> 
        <rect x="185" y="191" rx="0" ry="0" width="166" height="78" /> 
        <rect x="366" y="192" rx="0" ry="0" width="166" height="78" />
    </clipPath>
    <linearGradient id="fill">
      <stop
        offset="0.599964"
        stop-color="#e3e3e3"
        stop-opacity="1"
      >
        <animate
          attributeName="offset"
          values="-2; -2; 1"
          keyTimes="0; 0.25; 1"
          dur="2s"
          repeatCount="indefinite"
        ></animate>
      </stop>
      <stop
        offset="1.59996"
        stop-color="#bababa"
        stop-opacity="1"
      >
        <animate
          attributeName="offset"
          values="-1; -1; 2"
          keyTimes="0; 0.25; 1"
          dur="2s"
          repeatCount="indefinite"
        ></animate>
      </stop>
      <stop
        offset="2.59996"
        stop-color="#e3e3e3"
        stop-opacity="1"
      >
        <animate
          attributeName="offset"
          values="0; 0; 3"
          keyTimes="0; 0.25; 1"
          dur="2s"
          repeatCount="indefinite"
        ></animate>
      </stop>
    </linearGradient>
  </defs>
</svg>